<?xml version="1.0" encoding="UTF-8" standalone="no"?>
<svg
   xmlns:dc="http://purl.org/dc/elements/1.1/"
   xmlns:cc="http://creativecommons.org/ns#"
   xmlns:rdf="http://www.w3.org/1999/02/22-rdf-syntax-ns#"
   xmlns:svg="http://www.w3.org/2000/svg"
   xmlns="http://www.w3.org/2000/svg"
   xmlns:sodipodi="http://sodipodi.sourceforge.net/DTD/sodipodi-0.dtd"
   xmlns:inkscape="http://www.inkscape.org/namespaces/inkscape"
   inkscape:version="1.0 (4035a4fb49, 2020-05-01)"
   sodipodi:docname="rqlite-dotnet-emblem.svg"
   id="svg2"
   height="300"
   width="300"
   version="1.1">
  <sodipodi:namedview
     inkscape:current-layer="CXswmL.tif"
     inkscape:window-maximized="1"
     inkscape:window-y="-8"
     inkscape:window-x="-8"
     inkscape:cy="-29.337716"
     inkscape:cx="1187.5699"
     inkscape:zoom="0.5008673"
     showgrid="false"
     id="namedview14"
     inkscape:window-height="1017"
     inkscape:window-width="2560"
     inkscape:pageshadow="2"
     inkscape:pageopacity="0"
     guidetolerance="10"
     gridtolerance="10"
     objecttolerance="10"
     borderopacity="1"
     bordercolor="#666666"
     pagecolor="#ffffff" />
  <defs
     id="defs4">
    <style
       id="style853">.cls-1{fill:#343369;}.cls-2{fill:#23bbe6;}.cls-3{fill:none;}</style>
  </defs>
  <metadata
     id="metadata7">
    <rdf:RDF>
      <cc:Work
         rdf:about="">
        <dc:format>image/svg+xml</dc:format>
        <dc:type
           rdf:resource="http://purl.org/dc/dcmitype/StillImage" />
        <dc:title></dc:title>
      </cc:Work>
    </rdf:RDF>
  </metadata>
  <g
     style="fill:#000000;fill-opacity:0"
     id="layer1"
     transform="translate(-135.8482,-591.06665)">
    <path
       style="fill:#0169c9;fill-opacity:1;stroke:#0169c9;stroke-width:2.64317;stroke-linecap:butt;stroke-linejoin:miter;stroke-miterlimit:4;stroke-dasharray:none;stroke-opacity:1"
       id="path2987"
       d="m 252.80855,592.38824 h 99.11894 l 16.51982,16.51983 v 99.11894 z" />
    <path
       style="fill:#0197fd;fill-opacity:1;stroke:#0197fd;stroke-width:2.64317;stroke-linecap:butt;stroke-linejoin:miter;stroke-miterlimit:4;stroke-dasharray:none;stroke-opacity:1"
       id="path2989"
       d="m 368.44731,608.90807 v 165.19824 l 66.07931,-66.0793 v -33.03964 z" />
    <path
       style="fill:#b3defd;fill-opacity:1;stroke:#b3defd;stroke-width:2.64317;stroke-linecap:butt;stroke-linejoin:miter;stroke-miterlimit:4;stroke-dasharray:none;stroke-opacity:1"
       id="path2991"
       d="m 434.52662,708.02701 v 99.11894 l -16.51983,16.51982 h -99.11894 z" />
    <path
       style="fill:#b3defd;fill-opacity:1;stroke:#b3defd;stroke-width:2.64317;stroke-linecap:butt;stroke-linejoin:miter;stroke-miterlimit:4;stroke-dasharray:none;stroke-opacity:1"
       id="path2993"
       d="m 252.80855,823.66577 h 165.19824 l -66.0793,66.0793 h -33.03964 z" />
    <path
       style="fill:#0197fd;fill-opacity:1;stroke:#0197fd;stroke-width:2.64317;stroke-linecap:butt;stroke-linejoin:miter;stroke-miterlimit:4;stroke-dasharray:none;stroke-opacity:1"
       id="path2995"
       d="M 318.88785,889.74507 H 219.76891 L 203.24909,873.22525 V 774.10631 Z" />
    <path
       style="fill:#0169c9;fill-opacity:1;stroke:#0169c9;stroke-width:2.64317;stroke-linecap:butt;stroke-linejoin:miter;stroke-miterlimit:4;stroke-dasharray:none;stroke-opacity:1"
       id="path2997"
       d="M 203.24909,873.22525 V 708.02701 l -66.0793,66.0793 v 33.03964 z" />
    <path
       style="fill:#013397;fill-opacity:1;stroke:#013397;stroke-width:2.64317;stroke-linecap:butt;stroke-linejoin:miter;stroke-miterlimit:4;stroke-dasharray:none;stroke-opacity:1"
       id="path2999"
       d="m 219.76891,592.38824 h 33.03964 l 66.0793,66.07931 H 153.68961 Z" />
    <path
       style="fill:#013397;fill-opacity:1;stroke:#013397;stroke-width:2.64317;stroke-linecap:butt;stroke-linejoin:miter;stroke-miterlimit:4;stroke-dasharray:none;stroke-opacity:1"
       id="path3001"
       d="m 137.16979,774.10631 v -99.11894 l 16.51982,-16.51982 h 99.11894 z" />
  </g>
  <g
     transform="translate(-300.32185,-11.645655)"
     data-name="Layer 1"
     id="Layer_1-2">
    <g
       id="CXswmL.tif">
      <g
         transform="matrix(1.2941027,0,0,1.2941027,372,67.028666)"
         id="g925">
        <path
           class="cls-1"
           d="M 0,74 C 0,54.4 12.22,38.83 30.71,34.84 c 13.11,-2.83 24.74,0.62 34.78,9.51 0.84,0.74 1,1.19 0.06,2 -1.95,1.82 -1.87,1.85 -3.95,0.1 A 34.51,34.51 0 0 0 40.72,38.17 c -17.28,-1 -33,11.52 -35.79,28.38 -3.28,20.25 8.07,36.88 26.21,41.21 11.69,2.79 22.26,-0.08 31.3,-8.08 1,-0.9 1.49,-1 2.38,0.06 1.63,1.88 1.75,1.89 -0.28,3.58 -11.37,9.45 -24.26,12.18 -38.2,7.44 C 12.4,106.02 4.05,96.11 0.82,81.79 A 39.64,39.64 0 0 1 0,74 Z"
           id="path859" />
        <path
           class="cls-1"
           d="m 71.15,63 c 1.44,-2.11 2.5,-4.29 4.55,-5.78 a 9.56,9.56 0 0 1 8.17,-1.63 1.05,1.05 0 0 1 1,1.26 c 0,1.16 0,2.32 0,3.5 C 78.95,58.29 75.18,60.01 72.8,65.8 A 22,22 0 0 0 71.16,74 c 0,5.72 0,11.44 0,17.15 0,1.18 -0.33,1.49 -1.48,1.47 -3,-0.05 -3,0 -3,-3.05 0,-10.65 0,-21.31 0,-32 0,-1.4 0.36,-1.77 1.74,-1.71 2.77,0.11 2.77,0 2.77,2.79 z"
           id="path861" />
        <path
           class="cls-1"
           d="m 120,73.42 a 39.18,39.18 0 0 0 -0.53,-6.11 c -1,-4.57 -2.89,-8.54 -7.31,-10.68 A 15.61,15.61 0 0 0 91.63,63.2 c -4,7.16 -3.85,14.66 -0.57,22 A 13.39,13.39 0 0 0 100.65,93 22,22 0 0 0 114,91.81 c 3.69,-1.44 3.9,-1.9 3.6,-5.9 0,0 0,-0.1 -0.12,-0.35 l -1.35,0.91 a 17.27,17.27 0 0 1 -12.29,3 c -6.1,-0.87 -10,-5.77 -10.35,-12.6 -0.08,-1.41 0.18,-1.88 1.73,-1.86 7.72,0.09 15.44,0 23.15,0.07 1.32,0.03 1.69,-0.36 1.63,-1.66 z m -5.92,-2.34 c -3.22,0 -6.43,0 -9.64,0 -3.21,0 -6.32,0 -9.48,0 -0.55,0 -1.21,0.22 -1.17,-0.85 0.16,-5 4.75,-10.29 9.59,-11 8.48,-1.18 11.55,5 11.84,10.9 0.04,0.97 -0.5,0.95 -1.15,0.95 z"
           id="path865" />
        <ellipse
           class="cls-2"
           cx="38.619999"
           cy="73.639999"
           rx="12.49"
           ry="13.73"
           id="ellipse869" />
      </g>
    </g>
    <rect
       y="0"
       x="0"
       id="rect882"
       height="120"
       width="120"
       class="cls-3" />
  </g>
</svg>
